<?xml version="1.0" encoding="utf-8"?>
<!-- Generator: Adobe Illustrator 18.0.0, SVG Export Plug-In . SVG Version: 6.00 Build 0)  -->
<!DOCTYPE svg PUBLIC "-//W3C//DTD SVG 1.1//EN" "http://www.w3.org/Graphics/SVG/1.1/DTD/svg11.dtd">
<svg version="1.1" id="Layer_1" xmlns="http://www.w3.org/2000/svg" xmlns:xlink="http://www.w3.org/1999/xlink" x="0px" y="0px"
	 viewBox="0 0 1062.8 654.2" enable-background="new 0 0 1062.8 654.2" xml:space="preserve">
<path fill="none" stroke="#000000" stroke-miterlimit="10" d="M0.3,67c9.2,7.9,30.4,4.7,41.1,3.8c20.1-1.7,28.1-7.1,33.2-25.6
	C68.3,71.9,56.7,97.4,51,124c2.1-13.2,7-26,10.9-38.7c2.1-6.9,4.4-22,10.4-27.2c4.2-3.6,7.2-3.4,12.9-3c1.3,9.8-11.8,30.3-18.9,15.2
	c21,20.1,50-12.2,46.9-34.2c-8.1,4.6-12.6,32.9-5.8,40.6c10.1,11.4,26.4-3.9,23.7-16.4c-8.1,0.1-3.5,23.5,12.3,18.4
	c7.1-2.3,25.5-38.8,23.9-9.8c-2.7-3.4-5.3-7-9-9.1c-8.7,10.5,7.7,21.1,17.9,18.9c1.3-4.7,2.4-11.1-0.7-14.6
	c-2.2,7.1,3.8,13.9,11.4,10.6c7.5-3.2,7.4-20.2,14.5-25.6c6.1,7.7,7.7,21.4,6.9,31.1c-5.7,1.7-14.8,2.3-14.8-5.2
	c10.1-0.6,21.1,3.3,27.8-6.2c3.2-4.6,6.7-21.1-1.8-20.8c-3.6,12,7.5,12.5,16.9,13.6c33.1,3.8,88-6.4,86.9-50.7"/>
<path fill="none" stroke="#000000" stroke-miterlimit="10" d="M365.3,59c15.4-6.7,26.9-13.6,24.8-31.9c-22.4,7,22.1,62.5,10,74.8
	c-10,10.1-11.4-12.2-11.7-18c-1.3-20.5,13.8-36.8,12.9-55.8c-0.1,3.8-1.2,26.6,8,19.9c9.1-6.6-3.9-20.9-8.1-25
	c-3.9,7.5,0.2,7.4,5.5,9.3c11.6,4,18.6,1,18.6-11c0,5.4-2,14.7,4,17.3c8.1,3.5,13.6-16.7,17-21.8c5.5,3.3,6.7,12.6,6,19
	c-0.2-6.3-0.1-12.6,1.2-18.7c8.4,0.7,9.4,12.2,16.3,16.5c9.9,6.3,30.3,0.9,36.6-7.6"/>
<path fill="none" stroke="#000000" stroke-miterlimit="10" d="M391.3,7c-0.2,1-0.1,2,0.1,2.9c2.5,0.4,4.5,0.2,6.7-1.1
	c-0.2-1.8-1.2-3.5-2.8-5C392.7,4.3,392.2,5.4,391.3,7"/>
<path fill="none" stroke="#000000" stroke-miterlimit="10" d="M422.3,0c0.1,1.7,0.7,3.9,1,5.2c1.7-0.4,0.6-1,1-2.2"/>
<path fill="none" stroke="#000000" stroke-miterlimit="10" d="M645.3,10c-0.2,7.7-4.6,20.8,2,26.2c15.7,12.7,35.8-8.2,33.9-24
	c0.3,6.5-3.1,12.1-1.8,18.7c13.2-1.9,18.7-18.5,28.6-25c2.8,7.2,6.6,26.2-3.9,28.3c-3.3-4.9-7.2-12.5,0.3-15
	c8.5-2.8,15,11.4,21.8,14.8"/>
<path fill="none" stroke="#000000" stroke-miterlimit="10" d="M821.3,13c-2,15.7-0.2,24.3,18.8,21.9C849.3,12.4,818.8,4,822.2,16
	c3.4,12.2,33.4-9,41.4-7c8.9,2.2,12.8,13.7,5.9,21.1c2.1-5.9,6.8-10.8,12.9-12.2c2.7,5.3,4.8,11.3,10.2,14.6
	c9.4,5.8,48.4,4,55.8-2.4"/>
<path fill="none" stroke="#000000" stroke-miterlimit="10" d="M9.3,259c24.7,0.4,75.1,3.6,87-24.7c5.2-12.4,1.4-31.8-14.8-30.3
	c-2.5,15.3,11.3,25,13.2,39.1c0.9,6.7,1.8,8.9-4.2,12.6c-6.3,3.9-27,2.8-33-1.4c-8.4-6-10.4-14.5,0.4-16.2
	c15.1-2.4,37.4,14.2,50.2,20.6c6.1,3,12.3,6.4,18.3,9.4"/>
<path fill="none" stroke="#000000" stroke-miterlimit="10" d="M130.3,232c-3.5,2.6-6.9,8.1-8,12.9c1.4,0.2,2.5,0.1,3.9,0
	c0-3.8-0.2-7.7,0.9-11.2c0.3,10.2,9.5,20.8,20.4,15.3c16.9-8.6,5.6-44.7,3.8-58c-0.1,18.9-2.4,61.2,24.6,65.2
	c9.4,1.4,22.4-13.1,14.9-20.2c-1,4.3-0.7,8.8,0.6,13.1c6.5,2.1,10.8-3.1,9.9-9.4c0,28.9,31,0.4,22-18.6
	c12.3,0.1,13.2,16.1,13.1,25.1c12.6-8.8,23.8-21.7,37.2-30c3.8,3.7,4.5,9.4,5.9,14.5c-2.6-21.2-25.7-4.4-18,7.1
	c5.4,8,15.8,2.6,20-2.8c8.7-11.3,2.8-29.9-1.1-41.8c-2.2,19.2-3.7,52.1,18.5,61c9.5-10.8,17-23.3,26.5-34.1c3.7,5.1,4,13.1,7.3,17.9
	c-3.3-7.5-24.7-22.5-19.6-4c3.5,12.8,14.9,4.2,13.2-7c-0.7,4.4,1.2,10.2,6.1,11.2c4.3,0.8,13.4-17,17-20.1c12-10.2,23.2,4.1,21.9,18
	c18.3,1.7,13.9-28.1,5.9-36.7c-1.5,21.3,24.6,29.5,35.4,43.2c7.5,9.5,10.4,34.8-8.6,32.6c-8-0.9-9.3-5-7.6-14.3
	c4.4-24.6,44.2-36.6,63.2-44.5c12.2-5,55.4-14.8,57.9-32.4c0.7-5.1-3.7-16.6-9.1-17.8"/>
<path fill="none" stroke="#000000" stroke-miterlimit="10" d="M122.3,206c28.3-1.3,57.5,1.9,86,2"/>
<path fill="none" stroke="#000000" stroke-miterlimit="10" d="M551.3,221c25.8,15,55-39.1,43-60.2c-6.3,20.9-5.4,44.8-4.9,66.2
	c0.5,20.5-1.6,54.1,9.9,72.3c15.7-6.9,7.2-40,0.3-50.1c-7.8-11.4-19.2-22.4-29.3-31.9c10.6,1.5,35.7,15.6,44.9,6.3
	c6.8-6.9,0.8-14.7-6.6-8.7c-14,11.3,6.1,21.5,16.7,16.2c13.7-6.7,26-30.9,15.2-44.2c-0.7,9.7-2,45,12.2,47.5
	c9.3,1.7,6.1-10.5,0.5-13.9c9.8-1.5,20.9-0.1,28.1-8.6"/>
<path fill="none" stroke="#000000" stroke-miterlimit="10" d="M496.3,248c4.1,6.4,6.8,22.5-4,23"/>
<path fill="none" stroke="#000000" stroke-miterlimit="10" d="M720.3,198c4.1-12.6,12.3-24.2,19.6-6c8.2,20.5-1.6,39.8-24.5,39
	c-3.5-12,6.5-7.5,11.8-5c9,4.2,33.9,23.4,44,11"/>
<path fill="none" stroke="#000000" stroke-miterlimit="10" d="M758.3,176c0,16.7,1.2,33.6,2,50"/>
<path fill="none" stroke="#000000" stroke-miterlimit="10" d="M777.3,191c11.6,4.8,25.6-18.9,13.2-16.8c-1.2,7.8,11.4,8.2,10,13.8
	c1.7-5.2,8.9-5.4,12.6-9.6c5.1-5.9,4.2-10.4,4.3-18c0,11.4-2.5,26.1,0.9,36.7c8.2,0.2,15.9,1.4,24.1,0"/>
<path fill="none" stroke="#000000" stroke-miterlimit="10" d="M804.3,164c9,0.5,18.1,2.1,27,2"/>
<path fill="none" stroke="#000000" stroke-miterlimit="10" d="M151.3,362c-3.5,10-26.7,30.3-10.2,39.2
	c28.6,15.3,38.4-32.2,55.1-39.2c1.9,9.6-7.2,19.6-11.2,27.9c3.3-5.1,9.5-19.7,15.3-21.9c6.7-2.5,4.4,1.4,8.1,6
	c6.2,7.5,0.2,8.3,12.5,8.1c11.2-0.2,26.8-7.1,31.5-18"/>
<path fill="none" stroke="#000000" stroke-miterlimit="10" d="M151.3,346c2.7,1,5,1.7,7.2,0c-2.2-1.9-5.2-2.9-8-2.9
	C149.8,344.7,150.9,344.7,151.3,346"/>
<path fill="none" stroke="#000000" stroke-miterlimit="10" d="M325.3,381c-12.6-2.6-10.3,12.9-1.5,16.7c13.3,5.8,41.9,1.2,40.4-17.6
	c-2.6,0.5-6,2.7-6.5,6.2c-1,6.9,3.4,4.8,9.4,5.8c16.9,2.6,27-4.2,33.7-19.6c3.8-8.8,9.6-30.6,1.4-37.6c-6,14.7-5.8,41.6,7.9,52.4
	c8.8,6.9,33,9.1,30-8.4c-3.9,2.2-4.7,6.8-3.8,11.1c10.1,4.5,34.7,6.8,43.7-0.9c7.5-6.3,6.8-16.9,6.1-26c-2.7,6.3-9.9,35.2-0.4,38.6
	c9.1,3.3,6.6-8.9,6.5-14.5c0.4,11.1,26.1,8,23.1-6.1c11.2-1.8,14,13.1,15.9,20.4c12.6-6.3,18.5-21.7,29.4-30.1
	c0.9,2.2,2.3,5.5,2.9,7.4c-3.8-7.2-10.9-5.9-9.4,2.4c2,11.3,12.4,2.4,12.3-6.1c-2.5,3.4-3.1,7.6-1.6,11.6
	c19.5,7.6,25.2-26.6,24.5-39.8c-0.2,6.9-2.2,51.5,10.1,50.2c8.2-0.9,11.5-21,10.8-28c-1.6,24.3,21.6,24.6,22,1.2
	c-0.1,3.5-1.6,11.4,1.1,14.1c5.1,5.2,11.9,0.9,13.9-4.4c6.2-16.1-19.5-20.6-16.8-5.1c13.1,2,31-17.5,39.9-14.4
	c7.3,2.5,14.3,18,8.8,24.4c0.1-5.3-0.3-12,5.1-13.9c3.7,5,4.2,12.9,9.8,16.1c7.8,4.5,23.8-0.2,31.3-4.1"/>
<path fill="none" stroke="#000000" stroke-miterlimit="10" d="M555.3,357c17.7,4.9,42.1,0,61,0"/>
<path fill="none" stroke="#000000" stroke-miterlimit="10" d="M606.3,338c1.4,1.8,2.1,3.1,5.9,1.9c0-0.2-0.1-2.6-0.1-2.7
	c-3.2-1.1-3.9,0.5-5.8,1.9"/>
<path fill="none" stroke="#000000" stroke-miterlimit="10" d="M812.3,368c-2.9,3.5-6.2,7.8-6.1,12.9c6.9,0.4,24.9,3.5,28.9-4.1
	c1.8-3.5,0.6-11.1-2.7-13c-3.7-2.1-11.6,1.3-13,4.3c18.3,7.4,35.4-14.9,35.1-32c-9.1,13.4-15.7,32.5-20.4,47.5
	c-5.3,17-8.5,34.5-9.8,52.2c-0.3,3.2-3.7,24.4,0.8,29.6c19.7,0.5,22.5-53.2,9.3-60.4"/>
<path fill="none" stroke="#000000" stroke-miterlimit="10" d="M946.3,348c3.5,6.6-10.3,23.6-12.2,31.9c26.3,1.8,51.8-19.3,48.2-45.6
	c-3.8,12.4-1.8,26.5-2.1,39.4c1-4.6,2.4-9.5,5.9-12.1c3.2,14.9,23.3,10.4,16.3-2.6c-18,24.7,54.2,34.5,59.9,16.1"/>
<path fill="none" stroke="#000000" stroke-miterlimit="10" d="M924.3,361.5c8,0,16,0,24,0"/>
<path fill="none" stroke="#000000" stroke-miterlimit="10" d="M92.3,510c10.6-7.3,16.7-12.6,22-1.1c7.4,16.1-11.7,51.3-31.2,44.8
	c-2.2-16.8,18.2-26,31.3-21.7c8.4,2.8,16.7,13.4,26,12"/>
<path fill="none" stroke="#000000" stroke-miterlimit="10" d="M151.1,529.3c11.3-1.9,6.2-29.8-6.2-17.7
	C138.3,518.1,140.8,531,151.1,529.3z"/>
<path fill="none" stroke="#000000" stroke-miterlimit="10" d="M162.3,496c6.5,3.2,2,34.4,2,43"/>
<path fill="none" stroke="#000000" stroke-miterlimit="10" d="M232.3,498c-10.5-2.7-38.1-10.1-46.9,0.2c-8.8,10.2,12.6,10.5,8,22.4
	c-3.4,8.8-14.2,6.6-22,6.4c-0.5-1.3-0.5-2.6-0.1-4"/>
<path fill="none" stroke="#000000" stroke-miterlimit="10" d="M270.3,546c10.8,5.2,30.2,2,41.1,0.7c22.7-2.6,54.8-6.8,67.1-29.3
	c3.8-7,11-31.9-5.2-27.3c-14.1,4-12.2,38.4-8.3,47.8c8.3,19.9,28.2,4.8,28.2-11.9c-1,12.8,8.3,18.5,14.1,4c-3.9,19.5,9.4,6.9,15.2,1
	c11.5-11.6,16.1-3.7,15.8,10.7c3.1-5.2,5.3-10.9,9.8-15c5.7,4.7,6.8,13.4,15,14.4c12.1,1.4,15.6-14.8,12.3-23.5
	c-8.9,4.6-12.4,18.5,1.8,15.9c0.3-1.8,1.2-4.3,1.1-6.1c-6.7,11.7,39.1,19.5,23.9-10.6c-10.3,6.9,6.9,4.6,10.2,6.1
	c6.3,2.9,4.6,9.9,9.3,14.5c9.6,9.4,47.7,3.3,59.5-0.4"/>
<path fill="none" stroke="#000000" stroke-miterlimit="10" d="M609.3,551c9.8-18.3,42.4-40.6,38.8-4.4c3.8-7.7,9.8-17.4,17.2-22
	c3,6.6,6.8,15.2,13.9,18.8c5.5,2.8,21.7,1.9,17.1-8.6c-2.4-5.5-6.6-4.9-9.2-0.7c-6.6,10.7,24.8,13.7,30,12.2c0.7-4.3,0.5-9-1.7-12.5
	c-2.1,9,7.8,11.6,15.1,11.4c0.2-1.6,1.7-3.8,1.5-5.6c1.1,7.7,10.1,10.8,15.3,5.9c10.2-9.6-2.7-13.9-3.4-21
	c-0.9-10.8,15.2-15.5,13.3-27.5"/>
<path fill="none" stroke="#000000" stroke-miterlimit="10" d="M791.3,535c4.5-3.6,7.8-9.8,14.1-8.8c1.6,6,0.8,12.4,1,18.6
	c9,1.3,20.1-6.5,11.4-14.9c-1.6,8.9,0.1,17.3,2.5,26.1c6.2,22.8,14.1,43.2,14.2,67.2c0,8.8-3.1,44.3-21.7,24.6
	c-5.7-6-1-26.8,0.8-33.2c2.3-8.3,6.5-16,11.5-22.9c4.7-6.4,14.3-11.8,17.9-18.8c4.7-9.3,3.2-27.1-6.6-32c-3.8,3.8-3.7,10.4-2.5,15
	c19.6,4.2,15.9-24.8,29.8-28.8c5.1-1.5,10.4-0.3,10.7,5.9c-5.8-1.1-15.1-2.5-12.9,6.9c5.9,1.6,11.7-0.7,10.9-7.4
	c-3.5,22.1,58,9,35-19.3c-2.6-3.2-12.1-10.2-12.1-0.3c0,7.5,18.7,10.2,22.9,5c10.5,2.7,8.5,11.5,7.9,20.2c18.7,1.3,50.1-0.5,65.2-9"
	/>
</svg>
