<?xml version="1.0" encoding="utf-8"?>
<!-- Generator: Adobe Illustrator 18.0.0, SVG Export Plug-In . SVG Version: 6.00 Build 0)  -->
<!DOCTYPE svg PUBLIC "-//W3C//DTD SVG 1.1//EN" "http://www.w3.org/Graphics/SVG/1.1/DTD/svg11.dtd">
<svg version="1.1" id="Layer_1" xmlns="http://www.w3.org/2000/svg" xmlns:xlink="http://www.w3.org/1999/xlink" x="0px" y="0px"
	 viewBox="0 0 1151.9 1612.5" enable-background="new 0 0 1151.9 1612.5" xml:space="preserve">
<path fill="none" stroke="#000000" stroke-miterlimit="10" d="M657.4,626.5c1.7-13.5-13.9-9.4-12.8,3.6c5.6,1.4,10.9-2.7,13.9-7.4
	c-0.6,18.6-2.7,37.3-3.1,55.7"/>
<path fill="none" stroke="#000000" stroke-miterlimit="10" d="M675.4,659.5c6-6.6-7.8-59.8,3.7-63.9c9.9-3.4,11.9,31.1-4.7,28.9"/>
<path fill="none" stroke="#000000" stroke-miterlimit="10" d="M695.4,645.5c3.3-9.9,1.7-23.8,6-34.4c2.9,6.3,2.2,14.7,2,21.7
	c-0.4-6.6,5.6-28.4,13.8-27.1c4.8,21-5.9,58.9,30.2,46.8"/>
<path fill="none" stroke="#000000" stroke-miterlimit="10" d="M823.4,606.5c-6.3-19.6-18.8,1.3-16.6,12.8
	c25.8,4.7,19.7-74.7,19.6-89.6c0.7,30.6-11.7,73.7,8.2,100.9c17.5,23.9,44.9-9.4,35.3-30.3c-9.7-21.3-20.6,6.8-14.1,16.4
	c4.2,6.2,21.3,5.5,27.3,2.7c9.1-4.2,13.4-16.7,16.4-25.5c2.2,8.8,2.3,21.7-0.2,30.4c-5.5,0.6-8.9-4.4-12.6-7.9
	c15.5,16.3,30.7-5.5,34.3-19c1.8,5.9,8.7,22.4,5.6,28.3c-2.9,5.5-8.7,7.4-11.6-0.4c8.5-2.8,15.4,1.1,23-6.1
	c4.5-4.3,8.3-12.2,5.5-17.9c-10.8,4-3.9,15.4,4,17.9c16.2,5.2,37.7-17.8,27.7-33.3c-4.7-7.3-11.4-0.9-8.7,6
	c2.5,6.6,20.4,5.6,23.2-0.3c4.6,9.2-1.7,27.4,11.4,29.2c22.9,3.3,16.4-43.7,16.4-56.2c-0.5,26.9,4.8,57.7,32.9,69.6
	c20.8,8.8,69.5,8,80.1-16.6"/>
<path fill="none" stroke="#000000" stroke-miterlimit="10" d="M986.4,570.5c24.2-0.5,50.6,2,74,7"/>
<path fill="none" stroke="#000000" stroke-miterlimit="10" d="M633.4,811.5c-4.7,0.1-11.8,9.6-7.9,14.2c5.6,6.5,10.4-13.2,9.8-17
	c-0.9,7.4,5.6,18.3,10.9,9.1c8.3-14.4-33-41.9-44.6-37.2c-6.8,2.8-7.5,12.8-8.4,18.7c-3,19-1.9,38.7,11.9,53.2
	c3.7,3.9,47.7,32.5,42.2,9.1"/>
<path fill="none" stroke="#000000" stroke-miterlimit="10" d="M723.4,780.5c-14.8,0.2-43,3.9-18,16.4c22.8,11.4,5.1,28.4-9,11.6"/>
<path fill="none" stroke="#000000" stroke-miterlimit="10" d="M755.4,777.5c-31-3.5-20.1,45.8,8.3,31.4
	c17.2-8.8,18.9-37.8,17.5-53.6c-6.3,20,5.7,41.8,8.2,62c-1-15.2,4.7-41,17.2-18.8c3.5,6.3,5.1,13.8,13.1,12.9
	c11.8-1.3,8.9-19.5,8.5-27.3c3.9,12.8,9.7,31.2,26.1,30.2c1-9.1-2.5-16.7-3-25.4c-0.6,6.1,1.8,23.1,11.9,18.7
	c8.3-3.6,5.8-24,4.4-30.7c-0.4,1.4-0.1,3-0.2,4.5c8.8,1.5,13.9-2.5,19.1-8.5c-0.2,6-2.5,23.7,5.1,27c13.1,5.7,9.8-24.1,9.8-30.1
	c-0.8,8,2.2,26.6,11.2,29c13.9,3.7,26.6-32.4,24.4-43c-3-14.2-14.2-22.4-17.8-4.3c-3.3,16.6,11.3,47.1,25.2,56.5
	c9.5-6.4,13.1-20.2,21.1-26.4c1.3,4.9,6.4,18.2,1.3,21.3c-4.9,3-9.3-3-10.5-7.1c7.8,12.1,19.5,8.7,25.5-1.8
	c9.9-17.2,2.4-46.2-11.9-58.7c-4.6,29.6,42.8,95.8,73.6,65.3"/>
<path fill="none" stroke="#000000" stroke-miterlimit="10" d="M956.4,763.5c15.7-1.6,31.2-7.1,47-9"/>
<path fill="none" stroke="#000000" stroke-miterlimit="10" d="M920.9,846.5c0,9.3,0,18.7,0,28"/>
<path fill="none" stroke="#000000" stroke-miterlimit="10" d="M986.4,847.5c-13.2-7.9-11.1,23.7-4.5,29.5
	c19.6,17.5,32.9-3.3,31.5-22.2c-1.7,17,18.6,20.1,17.1,4.9c-1.1-11.1-20.4-16.1-18.4-3.2c19.7,2.2,46.3-21.5,44.2-41.9"/>
<path fill="none" stroke="#000000" stroke-miterlimit="10" d="M904.4,856.5c10,0.5,19.9,1,30,1"/>
<path fill="none" stroke="#000000" stroke-miterlimit="10" d="M1058.4,854.5c1.6,0,2,2.4,3.2,0
	C1059.8,852.4,1059.2,854.6,1058.4,854.5"/>
<path fill="none" stroke="#000000" stroke-miterlimit="10" d="M714.4,919.5c5.2,13.9-2.4,33.9-2,49"/>
<path fill="none" stroke="#000000" stroke-miterlimit="10" d="M729.4,916.5c1.1,12.3-4.5,24.9-3.1,37.7c0.3,2.3,2.4,17.7,7.7,9.2
	c4.9-7.8-6.8-16.5-10.6-9.9"/>
<path fill="none" stroke="#000000" stroke-miterlimit="10" d="M750.4,925.5c-3.6,7-10.4,31.7,4.2,29.2c15.8-2.8,6.1-27.3-4.2-31.2"
	/>
<path fill="none" stroke="#000000" stroke-miterlimit="10" d="M796.4,932.5c1.9,5.8-2.5,24.4,3,27.1c7.9,3.9,11.3-15.2,11.1-19.6
	c0,5.4-0.1,10.9,0.1,16.2c12.5,5.8,11-14,17-18c4.5,6.1,4.2,14.5,3.9,21.8c-0.3-5.7,1.3-15,6.9-16.7c0.2,6.1,1.5,13.3,6.2,17.5
	c5.2-7.1,8-14.4,7-23.3c0,9.6-1.7,21.2,7.5,27.1c4.4-7,3.7-16,3.5-23.9c-1.3,13.4,13.3,32.5,19.1,12.3c3.2-11.2-11.7-20.9-18-10.4
	c-2.2,3.7-1.2,7.2,2.2,9.4c8.6,5.5,12.2-6.5,17.5-9.3c13.9-7.2,13.3,11.2,11.2,21.4c-0.4-6.8-1.3-18.4,5.9-21.8
	c13,12.1,33.2,30.4,47.1,8.1"/>
<path fill="none" stroke="#000000" stroke-miterlimit="10" d="M847.4,925.5c1.2,0.9,2,0.7,2.2-0.6c-0.6-0.3-1.3-1.7-2.3-2.2
	c-1.2,3.4,1.1,3.6,4.1,4.9"/>
<path fill="none" stroke="#000000" stroke-miterlimit="10" d="M1012.4,931.5c-6.8,1.6-33.2,5.4-35.7,12.5
	c-2.4,6.9,12.5,6.9,17.4,9.9c4.2,2.6,10.3,5.8,6.1,11.6c-2.6,3.6-12.8,0.4-13.7,1.9c3.8-6.5,15.8-6.8,20.7-13.6
	c6.3-8.8,1.2-25.4-2.8-34.2c-0.2,6.3,14.7,57.5,25.1,41"/>
<path fill="none" stroke="#000000" stroke-miterlimit="10" d="M1034.4,948.5c2.1-1.7,3.2-3.1,0.2-5.9c-1.1,3.2,0.9,3.3,1.8,4.9"/>
<path fill="none" stroke="#000000" stroke-miterlimit="10" d="M1055.9,918.5c0,9.7,0,19.3,0,29"/>
<path fill="none" stroke="#000000" stroke-miterlimit="10" d="M1065.4,909.5c-5.3,13.1-4.4,32.9-4,47"/>
<path fill="none" stroke="#000000" stroke-miterlimit="10" d="M1043.4,927.5c9.4,0.4,21.5-1,32-1"/>
<path fill="none" stroke="#000000" stroke-miterlimit="10" d="M1089.4,908.5c13.7-2.8,14.7,23.1,2.3,22c6.2-1.6,19.3,6.9,14.4,13.8
	c-2.6,3.6-18.1,3.6-22.7,3.2"/>
<path fill="none" stroke="#000000" stroke-miterlimit="10" d="M1043.4,938c10,0,20,0,30,0"/>
<path fill="none" stroke="#000000" stroke-miterlimit="10" d="M683.9,1025.5c0,18.2,0,36.4,0,54.6c0-19.5-4.8-45.4,0.3-64.1
	c1.2-4.3,0.9-7.7,6.8-8.5c1.5,7.6-0.2,14.5-7.6,17.9c17.1,1.3,31.4-1.6,35,20.1c3.3,19.5-21.5,33.7-35.9,41.4
	c-14.4,7.7-22,11.2-23.9-6.5c-1-9.8-1-24.5,11.6-25.8"/>
<path fill="none" stroke="#000000" stroke-miterlimit="10" d="M737.4,1073.5c0-10.5-6.6-44.4,12-41"/>
<path fill="none" stroke="#000000" stroke-miterlimit="10" d="M757.4,1041.5c-0.7,5.5-1.3,11.1-0.9,16.6c1.7,0.4,2.8,0.5,4.6,0.2
	c1.1-4.5,0.3-9.6-2.9-13.2c5,0.7,10.8-0.7,13.3-5.2c-1.7,14.3,11.4,22.6,25.5,20.5c3-9.6-6.1-19.1-15.3-20.9
	c-2.1-0.4-13.4-1.2-10.4,3.8c3.9,6.5,25.7-0.9,30.2-5.2c5.3-5.2,6.3-12.6,4.1-18.7c-1.1,17,2.5,34.2,3.8,51c-0.1-7,5-23,13.6-21.8
	c2,4.8,0.3,9.3-5.4,9.1c25.4,25.1,23.7-28.6,12.3-42.8c-2.4,16.2,4.5,49.3,28.4,44.5c4.3-16.9,18.1-12.6,16.3,3.1
	c4.5-2.9,7.6-9,6.9-14.7c-1,9.5,18.5,46.3,5.9,44.7c-5.2-13.1,1.1-35.8,10.8-46c2.7,4.1,2.8,9.3,2.2,14c-1.1-12.4,3.8-13.8,10.4-8.1
	c9,7.6,6.6,15.4,20.6,14.1"/>
<path fill="none" stroke="#000000" stroke-miterlimit="10" d="M943.4,1059.5c3.9,11.1-2.8,20-9,28"/>
<path fill="none" stroke="#000000" stroke-miterlimit="10" d="M957.4,1058.5c1.2-5.5,3.8-37.2,12.1-35.1c5,1.2,2.9,15.6,2.9,18.3
	c-1.2-10.8,10.7-37.9,15-16.4c1,4.8-2,18.1,8,14.1c6-2.3-0.1-16.1,8.8-15.5c0.4,11,11.1,17,8.1,4.9c1.4,14.3,14,25.8,16,40.6
	c1.1,8.1,0.6,22.9-13.2,15.1c-9.6-5.5-7.3-23.6-3.5-31.2c7.2-14.4,18.1-16.6,32.7-16.7"/>
<path fill="none" stroke="#000000" stroke-miterlimit="10" d="M1062.4,1015.5c5.4,7.4,2,24,2,34"/>
<path fill="none" stroke="#000000" stroke-miterlimit="10" d="M1113.4,1048.5c-3.4-2.6-24.6-17.6-20.8-2.1
	c7.8-1.2,11.8-8.3,8.6-15.7c-4.1-9.2-10.4-6.4-16.7-6.3"/>
<path fill="none" stroke="#000000" stroke-miterlimit="10" d="M1111.4,1007.5c11.6-2.4,16.1,13,4.3,14.1c18.4-4.4,25,13.6,4.7,11.9"
	/>
<path fill="none" stroke="#000000" stroke-miterlimit="10" d="M1075.4,1025.5c0,9.3-1.7,18.9-1,28"/>
<path fill="none" stroke="#000000" stroke-miterlimit="10" d="M1140.4,1008.5c5,10.9,4.4,24.2,6,36"/>
<path fill="none" stroke="#000000" stroke-miterlimit="10" d="M646.4,1150.5c0.1,26.5,3.2,48.9,36,50"/>
<path fill="none" stroke="#000000" stroke-miterlimit="10" d="M679.4,1169.5c-1.8,2.8-6.3,19.2,2,16.8c10.6-3-1.8-34-5.2-39.4
	c3.7,7.2,6.2,25.9,13.7,29.6c7.6,3.8,17.8-3.3,15.5-12.8c0,5.3-3.8,21.4,4.8,19.7c9.4-1.9,2.7-23-3.7-22.1c-13.7,2,16,25.6,16.2,5.3
	c2.4,7.5-0.3,16.2,1.9,24c5.9-5.4,11.3-12.6,9.8-21.2c-0.4,5.2-1.3,14.5,4.9,16.1c5.1-5.7,10-13.6,9.1-21.6
	c-2.3,15.2,15.8-0.6,20-1.3c3.8,9.8-1.2,22-4.2,31.8c-0.3-4.5,5.4-27.5,12.9-22c4.1,3-1,16.3,4.5,19.9c8.6,5.6,31.2-7.4,38.7-10.8"
	/>
<path fill="none" stroke="#000000" stroke-miterlimit="10" d="M852.4,1149.5c-2.7,11.8-5.5,27.3-1.9,38.8
	c12.9,2.5,26.8-27.3,25.9-37.7c0,11.5,0.1,23.1,0,34.6c0.1-3.6,2.8-14.2,7.6-14.7c5.7-0.6,3.8,4.2,7.8,6.1c3.7,1.8,0.5,5.8,5.7,2.9
	c2.3-1.3,2.8-9.4,2.8-11.7c-8.8,21,39.3,14.9,49.2,14.7"/>
<path fill="none" stroke="#000000" stroke-miterlimit="10" d="M831.4,1165.5c8.5,3.2,16.6-1.2,25-2"/>
<path fill="none" stroke="#000000" stroke-miterlimit="10" d="M961.4,1155.5c-0.5-0.1-7.3-0.3-10,1.9c3.9,4.2,9.1,6.2,12.3,11.1
	c-1.7,3-4.6,5.2-7.9,5.9c7.6-3.3,17.9-4.8,23.1-11.7c5.6-7.4,3.6-20.7,3.6-29.3c-0.3,6.7-1.3,51.5,11,50.1c7-0.8,8-14.5,8.2-21
	c5.9,1.5,2.8,10,7.7,11.8c9.3,3.4,13.4-11.7,12.1-17.7c-11.2-1-3.4,12.3,4.2,14c10.5,2.3,20-10.5,9-14.2c-2.4,10.5,7,17.5,17.7,14
	c7.8-2.6,5.9-1.6,6.3-11.7c0.4-10.1-0.1-23.5-7.3-31.4c0.4,12.3,7,48.2,20,53c5.2,1.9,10.8-3.3,16.2-3"/>
<path fill="none" stroke="#000000" stroke-miterlimit="10" d="M957.4,1141.5c12.5,0.8,25.5,2.4,38,2"/>
<path fill="none" stroke="#000000" stroke-miterlimit="10" d="M1038.4,1143.5c8.8,3.1,20.5,1,30,1"/>
<path fill="none" stroke="#000000" stroke-miterlimit="10" d="M1116.4,1120.5c20.7,2.8,33.7,29.2,34.8,47.4
	c1.4,23-4.9,26.2-23.8,35.6"/>
<path fill="none" stroke="#000000" stroke-miterlimit="10" d="M1107.4,1146.5c0.3,1.6-0.4,2.4,0.4,3.9c0.7-0.3,2.5,0.2,3.5,0
	c0.1-1.1-0.2-2.7,0-3.8c-1.6-0.1-1.3,1.8-1.8,1.9"/>
<path fill="none" stroke="#000000" stroke-miterlimit="10" d="M1115.4,1167.5c-1.4,2.1-1.9,5.2-1.9,7.8c4.3,1.3,8,0.3,8.7-3.7
	c-2.2-0.7-4.5-1.4-6.9-1.1"/>
<path fill="none" stroke="#000000" stroke-miterlimit="10" d="M62.4,13.5c-10.5,11-25.8,60,4.1,56.1C94.3,66,55,35.9,45.4,54.5"/>
<path fill="none" stroke="#000000" stroke-miterlimit="10" d="M95.4,72.5c3.5-8.5,1-24.6,1-34.7c0-7.3-3.6-26.5,0.3-32.6
	c7.2-11.1,14.2-0.2,14.8,7.5c1.2,15.6-4.5,9.3-11.1,16.9"/>
<path fill="none" stroke="#000000" stroke-miterlimit="10" d="M116.4,57.5c3.2-8.3,1.7-25,10.8-29.1c1.9,6.4,1.3,13.3,1.2,19.9
	c0.8-6.2,3-12,5.2-17.7c10.7-2.5,9.5,21.9,15.8,27.9"/>
<path fill="none" stroke="#000000" stroke-miterlimit="10" d="M221.4,40.5c-8.8-1.3-25.6,19.8-16.3,23.1
	c8.6,3.1,17.2-17.2,18.7-22.1c3.7-12.3,4-27.5,1.5-40c0.2,18.7-2,38.3,1.3,56.8c8.2,2.3,15.1-7,14.8-14.7c0.4,7.6-4.4,16,0.9,22.1
	c8.7-4.8,13.7-14.6,22.2-19.5c4.5,5.1,3.2,14.4,2.8,21.1c2.3-6.7,6.1-17.1,13.2-19.1c1.6,5.9,3.2,12.8,4.3,19.1
	c7.4,1.2,14.2-12.8,19.5-17.9c4.9,2.5,4.7,9.6,4,14.8c1.7-5.2,3.9-10.8,6.3-15.9c4.2,5.1,8.6,16.1,16.9,15.1
	c7-0.8,13.4-11.6,8.8-17.2c-4.2,4.6-4.8,12.3,1.1,15.8c11.7,7.1,12.6-8.2,14.8-14.6c10,2.5,3.2,11.1,8.3,15.8
	c8.6,8.1,31.6-2.6,39.9-6.9"/>
<path fill="none" stroke="#000000" stroke-miterlimit="10" d="M243.4,31.5c0.1,3.7,0.7,5.7,4.8,4.9c0.1-1.3-0.1-2.6,0-3.8
	c-2.8-0.6-6-0.2-7.8,0.9"/>
<path fill="none" stroke="#000000" stroke-miterlimit="10" d="M0.4,229.5c7.2,12,40.3,1.9,49.3-4.1c16.1-10.7,19.5-42.1,9.8-58.6
	c-2.2-3.7-11.5-15.8-16.6-11.3c-9.9,8.7,11.6,24.9,15.8,29.6c6.3,7.2,21.9,24.8,18.9,36c-2.7,10.4-22.3,15.5-31.8,14.3
	c-9.4-1.2-17.8-9.6-15.3-20c2.4-10.1,11.5-9,19.9-8.9"/>
<path fill="none" stroke="#000000" stroke-miterlimit="10" d="M90.4,182.5c-0.6,5.3,2.6,12.8,2.1,16.4c-1.5-7.6-4.1-26.1,6.6-26.4
	c9-0.2,12.3,11.6,11.4,18.5c-0.5-5,2.9-19.2,9.3-19.7c7.6-0.6,7.2,9.4,9.5,14.7c8.9,20.8,17-1.8,12.5-14.7
	c-0.9,7.1,0.5,19.8,9.2,17.2c11.7-3.6,9.8-36.2,7.5-43.9c2.9,6.2,8.5,41.2,17.1,42c18.3,1.8,14.7-41.9,10.2-50.9
	c-0.9,14.2,2.2,29.2,0.7,43.2c3.3-7.3,5.7-16.7,15.7-16.6c11.3,0.1,10.7,13.4,18.4,19.8c12.1,10,31,5.4,44.3,0.2
	c4.6-1.8,10.8-5.7,15.7-4.9"/>
<path fill="none" stroke="#000000" stroke-miterlimit="10" d="M285.4,134.5c2.1,6.1,1.1,18.8-1,24"/>
<path fill="none" stroke="#000000" stroke-miterlimit="10" d="M274.4,143.5c6.1,2.3,14.2,1,21,1"/>
<path fill="none" stroke="#000000" stroke-miterlimit="10" d="M308.4,200.5c4.1-12.6,2.9-27.9,7.1-41.4c2.5-8,13.7-45.1,26.2-34
	c8,7.1,0.4,49-14.5,41.6c-4.5-2.2-4.8-8.9-2.8-12.6c17.4,12.4,27.6,56.7,54,54.4"/>
<path fill="none" stroke="#000000" stroke-miterlimit="10" d="M358.4,158.5c-3.9,4.1-10.9,15.3,0.6,12.9c-0.2-2.9,1-6.7,0.4-9.8
	c5.8,0.8,13.1,0.5,12.9-6.9c-0.7,0-2.1,0.1-2.7,0c-2.1,10.1,4,11.9,13.7,10.9c15.9-1.7,21.5-21.2,20-35.9
	c-12.5-2.9-13,24.6-8.7,31.9c6,10.2,21.6,12.2,21.7-2c-4.2-1-6.4,0.5-5.6,4.7c11.7-0.2,22.2,2.7,19.7-14.7c0,5.6,2,12.1,4.1,16.8
	c7-1.2,7.6-9.8,7.1-15.9c3.3,5.1,16.6,8.8,15.7-0.9c-9-1.4-4.7,9.6,2.2,10.9c11,2.1,25.5-18,30.4-25.4c5.2-7.9,4.9-14.5,4.5-23.6
	c-14.5,0-19.2,27.5-12,36.8c6.4,8.2,31.4,8.8,31-4.6c-3.6,1-6,4.5-5.8,8.5c2.2,1.2,4.7,1.5,7.1,1c3.1-10,4.2-25.4-2.9-33.8
	c-2,13.9,1.8,48.7,22.7,47.1"/>
<path fill="none" stroke="#000000" stroke-miterlimit="10" d="M131.4,159.5c1.9,1,2.2,3.6,4.2,1c-3.1-3.6-3.7-2.1-5.2-1"/>
<path fill="none" stroke="#000000" stroke-miterlimit="10" d="M150.4,153.5c6.2,2,12.3,0.9,18-1"/>
<path fill="none" stroke="#000000" stroke-miterlimit="10" d="M34.4,275.5c-0.1,12.9,2.4,37.6-6,48"/>
<path fill="none" stroke="#000000" stroke-miterlimit="10" d="M50.4,283.5c6.8-2.9,15-9.7,17.7,2c2.2,9.5-6,10.8-13.4,10
	c8.7-0.5,32.3-0.3,24.3,15.3c-3.3,6.4-20.4,11.8-20.6,0.7"/>
<path fill="none" stroke="#000000" stroke-miterlimit="10" d="M89.4,273.5c4.6,13.5,4.1,28.5,8,42"/>
<path fill="none" stroke="#000000" stroke-miterlimit="10" d="M127.4,291.5c8,0.1,23.4-5.3,23.2-15.1c7.6,27.4,5.7,57.9,5.8,86.1
	c0-13.2-8.6-61.1,9-68.8c13.3-5.9,20.6,16.3,9.2,21c6.8-0.2,18.3,2.6,24-1.1c7.6-4.8,3.1-11,5.6-17.2c2.2-5.5,7.7-10.4,14.3-7.8
	c6.3,2.5,6.4,13.4,5.8,19.7c14.8,7.4,27-17.6,14.9-22.4c-2.3,9.2-2.9,13.3,5.3,16.4c12.2,4.7,24.6-4.4,23.1-16.5
	c1.7,7.2,2.5,15.5,1.7,22.9c-2.9-0.5-4.6-0.1-7.1-1.9c20.2,4.7,22.1,1,22.2-17.8c-5.3,31.1,40.2,10.1,19.1-6.4
	c-0.3,5.4-2.1,13.7,4,15c5.8-15.6-3.2-28.2-9.4-41.7c1,10.5,8,42.6,23.1,42.1c8.9-0.3,20.6-18.4,8.3-20.2
	c-2.1,5.6-2.1,10.6,2.7,14.4c7.5,5.9,9.6,1.3,13.6-4.6c2.2-3.2,3.9-11.9,9.5-11c5.2,0.8,5.5,12.9,4.9,16.8
	c2.3-23,15.4-18.5,21.2-1.7c22.2,4.8,16.9-34.1,16.9-45.8c0,11.5-5.3,35.2,1.2,45.1c10.8,16.3,48.8,7.9,59.3-3.7
	c8.9-9.9-0.6-21.4-12.5-20.5"/>
<path fill="none" stroke="#000000" stroke-miterlimit="10" d="M368.4,258.5c14.2,4.8,33.9,1,49,1"/>
<path fill="none" stroke="#000000" stroke-miterlimit="10" d="M270.4,270.5c2.9,2.4,6.3,3.9,9.9,3.9c-0.4-5.2-6.5-5.6-7.9-0.9"/>
<path fill="none" stroke="#000000" stroke-miterlimit="10" d="M512.4,248.5c-5.7,0-19.6-4.4-23.9,0.7c-7.3,8.6,6.5,15.3,12.6,19
	c3.8,2.2,16,5.1,16.5,10.3c0.6,5.6-17.7,9.7-21.2,10.1c0.1-20.9,41.5-11.5,32.2-41.6c-0.7,7-2.2,18,0.1,24.7
	c3.1,9,16.5,12.1,23.6,5.9"/>
<path fill="none" stroke="#000000" stroke-miterlimit="10" d="M516.4,259c10,0,20,0,30,0"/>
<path fill="none" stroke="#000000" stroke-miterlimit="10" d="M582.4,263.5c-3.8-12.4-8-24-13-36"/>
<path fill="none" stroke="#000000" stroke-miterlimit="10" d="M610.4,281.5c0.5-17.3-1.6-38.7-6-55"/>
<path fill="none" stroke="#000000" stroke-miterlimit="10" d="M576.4,229.5c5.4,4.6,8.2,19.1,9,26"/>
<path fill="none" stroke="#000000" stroke-miterlimit="10" d="M593.4,231.5c2.3,5.7,1.8,12.8,4.2,18.9c10.8,0.3,21.2-1,31.8-1.9"/>
<path fill="none" stroke="#000000" stroke-miterlimit="10" d="M591.4,247c-6.3,0-12.7,0-19,0"/>
<path fill="none" stroke="#000000" stroke-miterlimit="10" d="M561.4,235.5c7.1,2.7,17.2,1,25,1"/>
<path fill="none" stroke="#000000" stroke-miterlimit="10" d="M38.9,387.5c0,17.3,0,34.5,0,51.8c0-12.2,0-24.4-1.2-36.6
	c-0.6-5.7-4.7-16.2,1.2-20.1c6-3.9,11.7,1.7,11.5,7.2c-0.2,6.2-8.8,12.5-13.9,15.6c10.2,0.5,26-0.5,26.9,13.6
	c0.9,13.3-19.3,20.8-29.8,21.5c-11.3,0.8-23.6-4.9-20.2-18.8c2.1-8.8,6.9-6.2,15.7-6.2"/>
<path fill="none" stroke="#000000" stroke-miterlimit="10" d="M78.4,411.5c-0.5,8.6-1,17-1,25.6c-0.9-7.4,1.6-27.3,6.1-33.4
	c5.4-7.3,13.3-6.4,21.9-6.2"/>
<path fill="none" stroke="#000000" stroke-miterlimit="10" d="M105.4,415.5c-2.5,10.3,5.3,9.5,13.8,8.8c-0.1-5.1-8.4-13.7-9.7-4.9
	c7.2,0.9,15.5-0.6,14.9-9.5c-1.5,10.8,15.5,24.7,18.1,10.7c2.5-13.6-17.8-15.3-15.4-2.2c16.2,0.9,13.9-15,14.4-25.9
	c3.5,14.7,11.1,27.8,16,42c-0.1-8.3-2.3-21.5,4.7-27.2c3.9,2.6,5.8,7.7,5.1,12.4c-1.2,0.7-1.7,0.6-3.1,0.8
	c27.2,30.5,46-20.6,21.3-38.3c-0.4,12.2-1.1,38.2,14.9,41.3c10.3,2,11.7-6.5,11.2-14.9c6.6,0.1,7.6,10.4,6.9,15.9
	c8.8,0.3,8.6-9.4,6.9-15.8c-0.5,12.9,26.3,54.2,17,64c-15.2,16.2-14.1-18.9-12.7-24.4c2.5-10.1,8.4-18.1,10.1-28.5
	c0.9-5.8-1.4-15.9,3.1-20.3c10.5-10.4,13.3,10.7,13.6,17.9c-0.7-4.5-0.9-11.8,3.8-14.5c6.1-3.5,5.9,1.1,9.9,4.8
	c6.2,5.7,1.6,7,10.4,7.8c6.3,0.6,12.8-2,12.8-9"/>
<path fill="none" stroke="#000000" stroke-miterlimit="10" d="M307.4,414.5c-1.4,5.4-0.5,11.5-6,14"/>
<path fill="none" stroke="#000000" stroke-miterlimit="10" d="M330.4,380.5c1-4,7.3-9.7,12-8c7.5,2.7,3.6,21.3,2.9,26.9
	c0.5-4.2,3.6-38,14.1-33.8c8.1,3.2,3.9,27.6,4.1,34.7c11.1,1.9,12.8-18.7,21.7-21.8c1.1,5.3-1.1,16.3,3.6,19.8
	c8.6,6.5,11.3-7,10.4-12.9c-5.2,12.1,10.5,31.7,14.4,43.4c2.7,8.1,5.8,16.2-1,22.7c-5,4.8-13,5.4-18.7,1.9
	c-27.1-16.9,7.7-71.4,38.5-37"/>
<path fill="none" stroke="#000000" stroke-miterlimit="10" d="M440.4,354.5c0,18.7-1.7,37.3-2,56"/>
<path fill="none" stroke="#000000" stroke-miterlimit="10" d="M455.4,351.5c0.1,15,1,30,1,45"/>
<path fill="none" stroke="#000000" stroke-miterlimit="10" d="M468.4,365.5c5.2-1.7,9.1-6.6,14-8.2c7.5,11,9.3,32.9-3.8,40.1
	c-5.1-14.9,24.6-6.3,30.8-11"/>
<path fill="none" stroke="#000000" stroke-miterlimit="10" d="M496.4,340.5c14.1,2.2,18,12,4,19.9c8.6-0.1,22.8-3.7,22.9,10
	c0.1,6.7-6.2,11.8-12.9,8.2"/>
<path fill="none" stroke="#000000" stroke-miterlimit="10" d="M529.4,337.5c5.3,20.9,14.5,45.4,14,67"/>
<path fill="none" stroke="#000000" stroke-miterlimit="10" d="M545.4,269.5c0.6,0.9,0.9,0.9,1,0"/>
<path fill="none" stroke="#000000" stroke-miterlimit="10" d="M85.4,1368.5c5.8,19.3,4,43.8,4,63.8c-0.3-29.2-7.2-57.5-5.9-86.7
	c8-3.7,12.6,2.2,14.5,9.6c2.9,10.9-1.6,13.4-9.3,17.9c15.2-2.9,30.9-8.4,39.7,9.2c11.5,23.1-0.8,42.9-22,52.5
	c-31.2,14.2-60.5-9.3-58-43.3"/>
<path fill="none" stroke="#000000" stroke-miterlimit="10" d="M141.4,1373.5c1.3,5.4,2.7,14.2,8.7,14.9
	c16.3,2.2,15.3-25.4,13.5-34.5c0.5,16.1,12.4,37,18.4,52.2c6.3,16,7.1,30.9,10.4,47.4"/>
<path fill="none" stroke="#000000" stroke-miterlimit="10" d="M197.4,1347.5c-5.7,2.7-10.4,20.5-1.8,21.1c7.7,0.5,9.7-13.5,8.7-19
	c-2.8-0.6-5.9-1.3-8.8-1.1"/>
<path fill="none" stroke="#000000" stroke-miterlimit="10" d="M233.4,1312.5c9,13.3,12.3,35.2,13,50.9c0.8-19-23.3-65.5,10.3-70.9
	c9.9-1.6,14.7,6.4,15.6,16.5c1.1,13.4-4.3,10.7-13.3,16.2c10.5,5.3,32.9,7.9,29.6,25.2c-2.6,14-24.7,18.7-35.8,23.5
	c-8.6,3.7-16.9,9-26.5,8.9c-3.4-8.3-2.8-20.5-0.9-29.3"/>
<path fill="none" stroke="#000000" stroke-miterlimit="10" d="M54.4,1560.5c-0.6,7.9-0.2,51.5,10.6,51.5c4.9,0,13.2-20.8,14.3-23.7
	c3.1-8.5,4-17.3,3-26.2c2.3,11.7,4,28.7,14.9,35.6c10.1-13.9,15-36.1,7.1-51.9c6.1,30.2,57.7-15.5,34.6-16.4
	c-15.6-0.6-11.6,32.5,3.3,35c20.1,3.4,23.9-33.2,29.2-46.2c2.8,3.6,4.6,8,6.2,12.3c-1.4-5-5.2-9.4-10.1-11c-0.2,7.5-1.6,20.5,8.1,23
	c11.7,3.1,11.2-11.2,7.1-18.1c-2.5,8.4,4.4,12,11.2,9c15.3-6.8,6.7-38.5-0.4-48c-0.6,6.5,0.4,19.2,10.6,17.3
	c5.9-1.1,5.2-11.2,14.1-8.1c8.1,2.8,5.3,15.2,12.1,19.1c11.8,6.7,41.2-13,47.1-22.2"/>
<path fill="none" stroke="#000000" stroke-miterlimit="10" d="M298.4,1467.5c6.8-13.3,16.7-41.2,8-55.5c-9,17.3,10.4,17.9,16.8,2.7
	c0.6,9.1-2.1,23.3,9.2,24.9c16.6,2.4,27.5-29.3,16.7-40.1c-8.9,4.2-3.9,21.6,3.7,24.2c15.2,5.2,26.3-20.3,18.7-30.2
	c-2.2,6.2-2.9,19.7,7.5,16.9c16.8-4.4-2.2-48.7-10.5-56.6c-4.9,24.2,28.1,57.4,45.7,70.8"/>
<path fill="none" stroke="#000000" stroke-miterlimit="10" d="M49.4,1229.5c3.6,12.9,3.7,30.4,10.1,42c-1.6-22.2-12.9-56-4.1-77.3
	c13.6,3.9,19.4,43.5-3.1,40c1.2-1.2,4.5-3.2,5.9-4.1c13.4,8.4,16.7,25.8,35.1,24.3"/>
<path fill="none" stroke="#000000" stroke-miterlimit="10" d="M97.4,1184.5c-2.1-2.1-10.3,1.8-11.9,7.2c-3.1,11,8.9,10.4,14.6,16.6
	c3.6,4,7.9,11.3,2.7,16.6c-7.2,7.3-13.3-2.2-17.3-7.4"/>
<path fill="none" stroke="#000000" stroke-miterlimit="10" d="M114.4,1182.5c0.7-2.5,2.2-4.6,2.9-7c3.8,9.2,4.7,53.1,18.2,52.1
	c18.5-1.4,3.3-45.3-1-55.3c3.5-1,7.5-2.3,9.8-4.9"/>
<path fill="none" stroke="#000000" stroke-miterlimit="10" d="M157.4,1182.5c9.5-11.5,10.8-23.7,11-37.9
	c-0.9,29.5,12.5,56.7,15,85.8c-0.1-22.8-2.4-44.8-3.8-67.4c-0.3-4.9-3.7-21,5.8-18.6c17.1,4.5,6.6,46.8-10,38"/>
</svg>
